<svg xmlns="http://www.w3.org/2000/svg" xmlns:xlink="http://www.w3.org/1999/xlink" version="1.0" x="0" y="0" width="2400" height="2478.511555989583" viewBox="139.4 93.39897766113282 61.2 63.20204467773438" preserveAspectRatio="xMidYMid meet" color-interpolation-filters="sRGB"><g><defs><linearGradient id="92" x1="0%" y1="0%" x2="100%" y2="0%"><stop offset="0%" stop-color="#fa71cd"></stop> <stop offset="100%" stop-color="#9b59b6"></stop></linearGradient><linearGradient id="93" x1="0%" y1="0%" x2="100%" y2="0%"><stop offset="0%" stop-color="#f9d423"></stop> <stop offset="100%" stop-color="#f83600"></stop></linearGradient><linearGradient id="94" x1="0%" y1="0%" x2="100%" y2="0%"><stop offset="0%" stop-color="#0064d2"></stop> <stop offset="100%" stop-color="#1cb0f6"></stop></linearGradient><linearGradient id="95" x1="0%" y1="0%" x2="100%" y2="0%"><stop offset="0%" stop-color="#f00978"></stop> <stop offset="100%" stop-color="#3f51b1"></stop></linearGradient><linearGradient id="96" x1="0%" y1="0%" x2="100%" y2="0%"><stop offset="0%" stop-color="#7873f5"></stop> <stop offset="100%" stop-color="#ec77ab"></stop></linearGradient><linearGradient id="97" x1="0%" y1="0%" x2="100%" y2="0%"><stop offset="0%" stop-color="#f9d423"></stop> <stop offset="100%" stop-color="#e14fad"></stop></linearGradient><linearGradient id="98" x1="0%" y1="0%" x2="100%" y2="0%"><stop offset="0%" stop-color="#009efd"></stop> <stop offset="100%" stop-color="#2af598"></stop></linearGradient><linearGradient id="99" x1="0%" y1="0%" x2="100%" y2="0%"><stop offset="0%" stop-color="#ffcc00"></stop> <stop offset="100%" stop-color="#00b140"></stop></linearGradient><linearGradient id="100" x1="0%" y1="0%" x2="100%" y2="0%"><stop offset="0%" stop-color="#d51007"></stop> <stop offset="100%" stop-color="#ff8177"></stop></linearGradient><linearGradient id="102" x1="0%" y1="0%" x2="100%" y2="0%"><stop offset="0%" stop-color="#a2b6df"></stop> <stop offset="100%" stop-color="#0c3483"></stop></linearGradient><linearGradient id="103" x1="0%" y1="0%" x2="100%" y2="0%"><stop offset="0%" stop-color="#7ac5d8"></stop> <stop offset="100%" stop-color="#eea2a2"></stop></linearGradient><linearGradient id="104" x1="0%" y1="0%" x2="100%" y2="0%"><stop offset="0%" stop-color="#00ecbc"></stop> <stop offset="100%" stop-color="#007adf"></stop></linearGradient><linearGradient id="105" x1="0%" y1="0%" x2="100%" y2="0%"><stop offset="0%" stop-color="#b88746"></stop> <stop offset="100%" stop-color="#fdf5a6"></stop></linearGradient></defs><g class="imagesvg isNoFont" transform="translate(140,93.99897766125784)"><g><rect fill="#333" fill-opacity="0" stroke-width="2" x="0" y="0" width="60" height="62.00204606752023" class="image-rect"></rect> <svg x="0" y="0" width="60" height="62.00204606752023" filtersec="colorsb9210506304" class="image-svg-svg primary" style="overflow: visible;"><svg xmlns="http://www.w3.org/2000/svg" viewBox="-0.027530694380402565 -0.0020903043914586306 111.73080444335938 115.45925903320312"><path d="M0 82.09c0-4.83.06-9.66 0-14.48a3.31 3.31 0 0 1 1.85-3.41q12.48-7.1 24.85-14.38a3.12 3.12 0 0 1 3.64 0Q43 57.32 55.82 64.63a3.15 3.15 0 0 1 1.9 3.11c-.08 9.9 0 19.81-.12 29.71a4 4 0 0 1-1.71 2.85c-8.29 4.94-16.68 9.71-25 14.61a2.93 2.93 0 0 1-3.41 0Q14.79 107.43 2 100.16a3.5 3.5 0 0 1-2-3.59c.09-4.82 0-9.65 0-14.48z" fill="#2d53be"></path><path d="M87.73 27.45c0 3.83-.07 7.66 0 11.49a3.47 3.47 0 0 1-2 3.6c-7.11 4-14.14 8.16-21.25 12.15a3.46 3.46 0 0 1-2.85.06c-7.12-4-14.15-8.15-21.25-12.17a3.51 3.51 0 0 1-2.08-3.53q.15-11.62 0-23.24a3.3 3.3 0 0 1 2-3.33C47.46 8.45 54.48 4.29 61.6.31a3.69 3.69 0 0 1 3.1.06c7 3.94 14 8.07 21 12.05a3.42 3.42 0 0 1 2 3.53c-.05 3.83.03 7.66.03 11.5z" fill="#2595db"></path><path d="M111.67 78c0 3.57.11 7.16-.07 10.73a3.87 3.87 0 0 1-1.55 2.7q-9.3 5.59-18.78 10.89a3.46 3.46 0 0 1-2.87 0q-9.27-5.14-18.35-10.62a3.53 3.53 0 0 1-1.44-2.52c-.11-7.24-.12-14.48 0-21.72a3.82 3.82 0 0 1 1.62-2.66q9.21-5.53 18.58-10.8a3.73 3.73 0 0 1 3.1 0q9.16 5.09 18.13 10.51a3.85 3.85 0 0 1 1.56 2.71c.18 3.62.07 7.21.07 10.78z" fill="#242a9b"></path></svg></svg> </g></g><defs v-gra="od"></defs></g></svg>